<mxfile host="app.diagrams.net" modified="2022-09-09T14:12:05.048Z" agent="5.0 (X11)" etag="hQgfgybbTDwb4Jl1nSfR" version="20.2.4" type="github">
  <diagram id="UcOqPHxvGk1yfxqvnvmc" name="Page-1">
    <mxGraphModel dx="2539" dy="3286" grid="1" gridSize="10" guides="1" tooltips="1" connect="1" arrows="1" fold="1" page="1" pageScale="1" pageWidth="850" pageHeight="1100" math="0" shadow="0">
      <root>
        <mxCell id="0" />
        <mxCell id="1" parent="0" />
        <mxCell id="KQQbMTviotiH4Wk9ZTqU-19" style="edgeStyle=orthogonalEdgeStyle;rounded=0;orthogonalLoop=1;jettySize=auto;html=1;" edge="1" parent="1" source="KQQbMTviotiH4Wk9ZTqU-14" target="KQQbMTviotiH4Wk9ZTqU-18">
          <mxGeometry relative="1" as="geometry" />
        </mxCell>
        <mxCell id="KQQbMTviotiH4Wk9ZTqU-14" value="start" style="strokeWidth=2;html=1;shape=mxgraph.flowchart.start_1;whiteSpace=wrap;" vertex="1" parent="1">
          <mxGeometry x="80" y="880" width="100" height="60" as="geometry" />
        </mxCell>
        <mxCell id="KQQbMTviotiH4Wk9ZTqU-15" value="" style="strokeWidth=2;html=1;shape=mxgraph.flowchart.annotation_2;align=left;labelPosition=right;pointerEvents=1;rotation=-180;" vertex="1" parent="1">
          <mxGeometry x="30" y="860" width="50" height="100" as="geometry" />
        </mxCell>
        <mxCell id="KQQbMTviotiH4Wk9ZTqU-17" value="&lt;div&gt;first_cable_id&lt;/div&gt;&lt;div&gt;second_cable_id&lt;br&gt;&lt;/div&gt;" style="text;html=1;align=center;verticalAlign=middle;resizable=0;points=[];autosize=1;strokeColor=none;fillColor=none;" vertex="1" parent="1">
          <mxGeometry x="-50" y="890" width="110" height="40" as="geometry" />
        </mxCell>
        <mxCell id="KQQbMTviotiH4Wk9ZTqU-21" style="edgeStyle=orthogonalEdgeStyle;rounded=0;orthogonalLoop=1;jettySize=auto;html=1;" edge="1" parent="1" source="KQQbMTviotiH4Wk9ZTqU-18" target="KQQbMTviotiH4Wk9ZTqU-20">
          <mxGeometry relative="1" as="geometry" />
        </mxCell>
        <mxCell id="KQQbMTviotiH4Wk9ZTqU-18" value="&lt;div&gt;under_cable_pos = under_cable(first_cable_id)&lt;br&gt;&lt;/div&gt;&lt;div&gt;fly_to_position_action(under_cable_pos)&lt;/div&gt;" style="rounded=1;whiteSpace=wrap;html=1;absoluteArcSize=1;arcSize=14;strokeWidth=2;" vertex="1" parent="1">
          <mxGeometry x="250" y="860" width="250" height="100" as="geometry" />
        </mxCell>
        <mxCell id="KQQbMTviotiH4Wk9ZTqU-23" style="edgeStyle=orthogonalEdgeStyle;rounded=0;orthogonalLoop=1;jettySize=auto;html=1;" edge="1" parent="1" source="KQQbMTviotiH4Wk9ZTqU-20" target="KQQbMTviotiH4Wk9ZTqU-22">
          <mxGeometry relative="1" as="geometry">
            <Array as="points">
              <mxPoint x="665" y="1110" />
            </Array>
          </mxGeometry>
        </mxCell>
        <mxCell id="KQQbMTviotiH4Wk9ZTqU-26" style="edgeStyle=orthogonalEdgeStyle;rounded=0;orthogonalLoop=1;jettySize=auto;html=1;" edge="1" parent="1" source="KQQbMTviotiH4Wk9ZTqU-20" target="KQQbMTviotiH4Wk9ZTqU-25">
          <mxGeometry relative="1" as="geometry" />
        </mxCell>
        <mxCell id="KQQbMTviotiH4Wk9ZTqU-20" value="successful(fly_to_position)" style="strokeWidth=2;html=1;shape=mxgraph.flowchart.decision;whiteSpace=wrap;" vertex="1" parent="1">
          <mxGeometry x="580" y="860" width="170" height="100" as="geometry" />
        </mxCell>
        <mxCell id="KQQbMTviotiH4Wk9ZTqU-22" value="failed" style="strokeWidth=2;html=1;shape=mxgraph.flowchart.terminator;whiteSpace=wrap;" vertex="1" parent="1">
          <mxGeometry x="80" y="1080" width="100" height="60" as="geometry" />
        </mxCell>
        <mxCell id="KQQbMTviotiH4Wk9ZTqU-24" value="false" style="text;html=1;align=center;verticalAlign=middle;resizable=0;points=[];autosize=1;strokeColor=none;fillColor=none;" vertex="1" parent="1">
          <mxGeometry x="660" y="1000" width="50" height="30" as="geometry" />
        </mxCell>
        <mxCell id="KQQbMTviotiH4Wk9ZTqU-30" style="edgeStyle=orthogonalEdgeStyle;rounded=0;orthogonalLoop=1;jettySize=auto;html=1;" edge="1" parent="1" source="KQQbMTviotiH4Wk9ZTqU-25" target="KQQbMTviotiH4Wk9ZTqU-29">
          <mxGeometry relative="1" as="geometry" />
        </mxCell>
        <mxCell id="KQQbMTviotiH4Wk9ZTqU-25" value="land_on_cable_action(first_cable_id)" style="rounded=1;whiteSpace=wrap;html=1;absoluteArcSize=1;arcSize=14;strokeWidth=2;" vertex="1" parent="1">
          <mxGeometry x="830" y="860" width="250" height="100" as="geometry" />
        </mxCell>
        <mxCell id="KQQbMTviotiH4Wk9ZTqU-27" value="true" style="text;html=1;align=center;verticalAlign=middle;resizable=0;points=[];autosize=1;strokeColor=none;fillColor=none;" vertex="1" parent="1">
          <mxGeometry x="760" y="885" width="40" height="30" as="geometry" />
        </mxCell>
        <mxCell id="KQQbMTviotiH4Wk9ZTqU-32" style="edgeStyle=orthogonalEdgeStyle;rounded=0;orthogonalLoop=1;jettySize=auto;html=1;" edge="1" parent="1" source="KQQbMTviotiH4Wk9ZTqU-29" target="KQQbMTviotiH4Wk9ZTqU-22">
          <mxGeometry relative="1" as="geometry" />
        </mxCell>
        <mxCell id="KQQbMTviotiH4Wk9ZTqU-35" style="edgeStyle=orthogonalEdgeStyle;rounded=0;orthogonalLoop=1;jettySize=auto;html=1;" edge="1" parent="1" source="KQQbMTviotiH4Wk9ZTqU-29" target="KQQbMTviotiH4Wk9ZTqU-34">
          <mxGeometry relative="1" as="geometry" />
        </mxCell>
        <mxCell id="KQQbMTviotiH4Wk9ZTqU-29" value="successful(land_on_cable)" style="strokeWidth=2;html=1;shape=mxgraph.flowchart.decision;whiteSpace=wrap;" vertex="1" parent="1">
          <mxGeometry x="870" y="1060" width="170" height="100" as="geometry" />
        </mxCell>
        <mxCell id="KQQbMTviotiH4Wk9ZTqU-33" value="false" style="text;html=1;align=center;verticalAlign=middle;resizable=0;points=[];autosize=1;strokeColor=none;fillColor=none;" vertex="1" parent="1">
          <mxGeometry x="720" y="1090" width="50" height="30" as="geometry" />
        </mxCell>
        <mxCell id="KQQbMTviotiH4Wk9ZTqU-38" style="edgeStyle=orthogonalEdgeStyle;rounded=0;orthogonalLoop=1;jettySize=auto;html=1;" edge="1" parent="1" source="KQQbMTviotiH4Wk9ZTqU-34" target="KQQbMTviotiH4Wk9ZTqU-37">
          <mxGeometry relative="1" as="geometry" />
        </mxCell>
        <mxCell id="KQQbMTviotiH4Wk9ZTqU-34" value="&lt;div&gt;leave_cable_action()&lt;/div&gt;drum_manual_roll_action(out, roll_secs_param)" style="rounded=1;whiteSpace=wrap;html=1;absoluteArcSize=1;arcSize=14;strokeWidth=2;" vertex="1" parent="1">
          <mxGeometry x="830" y="1240" width="250" height="100" as="geometry" />
        </mxCell>
        <mxCell id="KQQbMTviotiH4Wk9ZTqU-36" value="true" style="text;html=1;align=center;verticalAlign=middle;resizable=0;points=[];autosize=1;strokeColor=none;fillColor=none;" vertex="1" parent="1">
          <mxGeometry x="950" y="1175" width="40" height="30" as="geometry" />
        </mxCell>
        <mxCell id="KQQbMTviotiH4Wk9ZTqU-40" style="edgeStyle=orthogonalEdgeStyle;rounded=0;orthogonalLoop=1;jettySize=auto;html=1;" edge="1" parent="1" source="KQQbMTviotiH4Wk9ZTqU-37" target="KQQbMTviotiH4Wk9ZTqU-39">
          <mxGeometry relative="1" as="geometry" />
        </mxCell>
        <mxCell id="KQQbMTviotiH4Wk9ZTqU-42" style="edgeStyle=orthogonalEdgeStyle;rounded=0;orthogonalLoop=1;jettySize=auto;html=1;" edge="1" parent="1" source="KQQbMTviotiH4Wk9ZTqU-37" target="KQQbMTviotiH4Wk9ZTqU-22">
          <mxGeometry relative="1" as="geometry">
            <Array as="points">
              <mxPoint x="665" y="1110" />
            </Array>
          </mxGeometry>
        </mxCell>
        <mxCell id="KQQbMTviotiH4Wk9ZTqU-37" value="successful(leave_cable)" style="strokeWidth=2;html=1;shape=mxgraph.flowchart.decision;whiteSpace=wrap;" vertex="1" parent="1">
          <mxGeometry x="580" y="1240" width="170" height="100" as="geometry" />
        </mxCell>
        <mxCell id="KQQbMTviotiH4Wk9ZTqU-45" style="edgeStyle=orthogonalEdgeStyle;rounded=0;orthogonalLoop=1;jettySize=auto;html=1;" edge="1" parent="1" source="KQQbMTviotiH4Wk9ZTqU-39" target="KQQbMTviotiH4Wk9ZTqU-44">
          <mxGeometry relative="1" as="geometry" />
        </mxCell>
        <mxCell id="KQQbMTviotiH4Wk9ZTqU-39" value="&lt;div&gt;under_cable_pos = under_cable(second_cable_id)&lt;br&gt;&lt;/div&gt;&lt;div&gt;fly_to_position_action(under_cable_pos)&lt;/div&gt;" style="rounded=1;whiteSpace=wrap;html=1;absoluteArcSize=1;arcSize=14;strokeWidth=2;" vertex="1" parent="1">
          <mxGeometry x="250" y="1240" width="250" height="100" as="geometry" />
        </mxCell>
        <mxCell id="KQQbMTviotiH4Wk9ZTqU-41" value="true" style="text;html=1;align=center;verticalAlign=middle;resizable=0;points=[];autosize=1;strokeColor=none;fillColor=none;" vertex="1" parent="1">
          <mxGeometry x="520" y="1270" width="40" height="30" as="geometry" />
        </mxCell>
        <mxCell id="KQQbMTviotiH4Wk9ZTqU-43" value="false" style="text;html=1;align=center;verticalAlign=middle;resizable=0;points=[];autosize=1;strokeColor=none;fillColor=none;" vertex="1" parent="1">
          <mxGeometry x="660" y="1160" width="50" height="30" as="geometry" />
        </mxCell>
        <mxCell id="KQQbMTviotiH4Wk9ZTqU-47" style="edgeStyle=orthogonalEdgeStyle;rounded=0;orthogonalLoop=1;jettySize=auto;html=1;" edge="1" parent="1" source="KQQbMTviotiH4Wk9ZTqU-44" target="KQQbMTviotiH4Wk9ZTqU-51">
          <mxGeometry relative="1" as="geometry">
            <mxPoint x="375" y="1640" as="targetPoint" />
            <Array as="points">
              <mxPoint x="375" y="1650" />
            </Array>
          </mxGeometry>
        </mxCell>
        <mxCell id="KQQbMTviotiH4Wk9ZTqU-49" style="edgeStyle=orthogonalEdgeStyle;rounded=0;orthogonalLoop=1;jettySize=auto;html=1;" edge="1" parent="1" source="KQQbMTviotiH4Wk9ZTqU-44" target="KQQbMTviotiH4Wk9ZTqU-22">
          <mxGeometry relative="1" as="geometry" />
        </mxCell>
        <mxCell id="KQQbMTviotiH4Wk9ZTqU-44" value="successful(land_on_cable)" style="strokeWidth=2;html=1;shape=mxgraph.flowchart.decision;whiteSpace=wrap;" vertex="1" parent="1">
          <mxGeometry x="290" y="1440" width="170" height="100" as="geometry" />
        </mxCell>
        <mxCell id="KQQbMTviotiH4Wk9ZTqU-48" value="true" style="text;html=1;align=center;verticalAlign=middle;resizable=0;points=[];autosize=1;strokeColor=none;fillColor=none;" vertex="1" parent="1">
          <mxGeometry x="370" y="1575" width="40" height="30" as="geometry" />
        </mxCell>
        <mxCell id="KQQbMTviotiH4Wk9ZTqU-50" value="false" style="text;html=1;align=center;verticalAlign=middle;resizable=0;points=[];autosize=1;strokeColor=none;fillColor=none;" vertex="1" parent="1">
          <mxGeometry x="185" y="1485" width="50" height="30" as="geometry" />
        </mxCell>
        <mxCell id="KQQbMTviotiH4Wk9ZTqU-51" value="success" style="strokeWidth=2;html=1;shape=mxgraph.flowchart.terminator;whiteSpace=wrap;" vertex="1" parent="1">
          <mxGeometry x="80" y="1620" width="100" height="60" as="geometry" />
        </mxCell>
      </root>
    </mxGraphModel>
  </diagram>
</mxfile>
